<?xml version="1.0" encoding="UTF-8"?>
<!DOCTYPE svg PUBLIC "-//W3C//DTD SVG 1.1//EN" "http://www.w3.org/Graphics/SVG/1.1/DTD/svg11.dtd">
<!-- Creator: CorelDRAW 2021 (64-Bit) -->
<svg xmlns="http://www.w3.org/2000/svg" xml:space="preserve" width="300px" height="99px" version="1.1" style="shape-rendering:geometricPrecision; text-rendering:geometricPrecision; image-rendering:optimizeQuality; fill-rule:evenodd; clip-rule:evenodd"
viewBox="0 0 375.25 123.88"
 xmlns:xlink="http://www.w3.org/1999/xlink"
 xmlns:xodm="http://www.corel.com/coreldraw/odm/2003">
 <defs>
  <style type="text/css">
   <![CDATA[
    .str1 {stroke:black;stroke-width:1.25;stroke-linecap:round;stroke-linejoin:round;stroke-miterlimit:22.9256}
    .str0 {stroke:#FFCC29;stroke-width:2.5;stroke-linecap:round;stroke-linejoin:round;stroke-miterlimit:22.9256}
    .fil6 {fill:none}
    .fil1 {fill:#FEFEFE}
    .fil3 {fill:#FFCC29}
    .fil2 {fill:#FF0066}
    .fil4 {fill:#ED2F59;fill-rule:nonzero}
    .fil5 {fill:black;fill-rule:nonzero}
    .fil0 {fill:#1A1A1A;fill-rule:nonzero}
   ]]>
  </style>
   <clipPath id="id0">
    <path d="M0 0l375.25 0 0 123.88 -375.25 0 0 -123.88z"/>
   </clipPath>
 </defs>
 <g id="Capa_x0020_1">
  <metadata id="CorelCorpID_0Corel-Layer"/>
  <g>
  </g>
  <g style="clip-path:url(#id0)">
   <g>
    <g>
     <path class="fil0" d="M65.69 51.42l-7.91 -0.98 0 0 0.04 -0.3 0.04 -0.3 0.03 -0.29 0.04 -0.3 0.03 -0.29 0.03 -0.27 0.03 -0.28 0.02 -0.28 0.03 -0.28 0.02 -0.28 0.02 -0.26 0.02 -0.28 0.02 -0.27 0.01 -0.26 0.02 -0.26 0.01 -0.27 0.01 -0.26 0.01 -0.26 0.01 -0.26 0.01 -0.26 0.01 -0.26 0 -0.25 0.01 -0.26 0 -0.26 0.01 -0.27 0 -0.25 0 -0.25 0 -0.27 0.01 -0.26 0 -0.26 0 -0.27 0 -0.25 7.99 0.04 0 0.27 -0.01 0.27 0 0.26 0 0.26 0 0.27 -0.01 0.28 0 0.28 0 0.26 -0.01 0.28 -0.01 0.28 0 0.29 -0.01 0.28 -0.01 0.28 -0.01 0.29 -0.01 0.3 -0.02 0.29 -0.01 0.29 -0.02 0.31 -0.01 0.3 -0.02 0.3 -0.02 0.31 -0.03 0.31 -0.02 0.32 -0.03 0.31 -0.03 0.32 -0.03 0.33 -0.04 0.33 -0.04 0.33 -0.04 0.34 -0.04 0.34 -0.04 0.34 -0.05 0.35 0 -0.01zm0 0.01c-0.29,2.04 -2.3,3.48 -4.49,3.21 -2.18,-0.27 -3.72,-2.15 -3.42,-4.2l7.91 0.99zm-2.29 11.15l-7.79 -1.62 0 0 0.07 -0.31 0.07 -0.3 0.08 -0.31 0.07 -0.32 0.08 -0.32 0.07 -0.32 0.08 -0.33 0.08 -0.33 0.07 -0.32 0.08 -0.34 0.07 -0.34 0.08 -0.33 0.07 -0.35 0.08 -0.34 0.07 -0.34 0.08 -0.34 0.07 -0.35 0.07 -0.33 0.07 -0.34 0.07 -0.34 0.07 -0.35 0.06 -0.34 0.07 -0.33 0.06 -0.34 0.06 -0.33 0.06 -0.33 0.06 -0.33 0.05 -0.32 0.05 -0.32 0.05 -0.32 0.05 -0.3 0.05 -0.31 7.91 0.98 -0.05 0.35 -0.05 0.36 -0.06 0.35 -0.06 0.36 -0.06 0.36 -0.06 0.36 -0.07 0.36 -0.06 0.37 -0.07 0.35 -0.07 0.37 -0.07 0.36 -0.07 0.36 -0.08 0.36 -0.07 0.37 -0.08 0.37 -0.08 0.36 -0.07 0.35 -0.08 0.36 -0.08 0.36 -0.08 0.35 -0.08 0.36 -0.07 0.34 -0.08 0.34 -0.08 0.35 -0.08 0.34 -0.08 0.34 -0.08 0.33 -0.07 0.32 -0.08 0.32 -0.07 0.32 -0.08 0.31 -0.07 0.31 0 -0.01zm0 0.01c-0.48,2.01 -2.62,3.28 -4.77,2.83 -2.15,-0.45 -3.5,-2.45 -3.02,-4.46l7.79 1.63zm-2.1 7.79l-7.61 -2.26 0 0 0.06 -0.17 0.06 -0.17 0.05 -0.18 0.06 -0.16 0.05 -0.18 0.06 -0.19 0.06 -0.19 0.05 -0.18 0.05 -0.19 0.06 -0.2 0.06 -0.18 0.05 -0.21 0.06 -0.21 0.06 -0.21 0.06 -0.22 0.05 -0.21 0.06 -0.22 0.06 -0.22 0.06 -0.24 0.06 -0.23 0.06 -0.23 0.06 -0.25 0.06 -0.25 0.06 -0.26 0.07 -0.25 0.06 -0.27 0.07 -0.27 0.06 -0.27 0.07 -0.27 0.07 -0.3 0.07 -0.29 0.07 -0.29 7.79 1.62 -0.07 0.31 -0.07 0.29 -0.07 0.28 -0.07 0.3 -0.07 0.29 -0.07 0.26 -0.06 0.28 -0.07 0.27 -0.06 0.26 -0.07 0.26 -0.06 0.25 -0.07 0.26 -0.06 0.25 -0.06 0.24 -0.06 0.24 -0.07 0.25 -0.06 0.24 -0.06 0.22 -0.07 0.24 -0.06 0.23 -0.06 0.21 -0.07 0.24 -0.06 0.22 -0.06 0.21 -0.07 0.23 -0.06 0.21 -0.07 0.21 -0.06 0.21 -0.07 0.22 -0.07 0.21 -0.07 0.2 -0.07 0.21 0 0zm0 0c-0.66,1.97 -2.91,3.06 -5.01,2.43 -2.1,-0.62 -3.26,-2.73 -2.6,-4.69l7.61 2.26zm-3.13 6.3l-6.64 -4.15 0.01 -0.01 0.08 -0.12 0.09 -0.13 0.08 -0.12 0.08 -0.12 0.08 -0.13 0.08 -0.12 0.08 -0.13 0.08 -0.12 0.07 -0.13 0.07 -0.13 0.07 -0.13 0.07 -0.11 0.07 -0.13 0.07 -0.14 0.07 -0.14 0.06 -0.13 0.07 -0.13 0.06 -0.13 0.05 -0.13 0.07 -0.15 0.07 -0.16 0.06 -0.13 0.05 -0.14 0.06 -0.14 0.06 -0.15 0.06 -0.16 0.05 -0.14 0.06 -0.16 0.06 -0.16 0.06 -0.16 0.05 -0.16 0.06 -0.17 7.61 2.26 -0.07 0.2 -0.07 0.21 -0.07 0.2 -0.07 0.2 -0.08 0.2 -0.08 0.21 -0.07 0.2 -0.08 0.2 -0.08 0.2 -0.09 0.21 -0.09 0.2 -0.08 0.19 -0.08 0.19 -0.09 0.2 -0.1 0.21 -0.09 0.19 -0.1 0.2 -0.1 0.2 -0.1 0.18 -0.1 0.2 -0.11 0.2 -0.11 0.2 -0.11 0.19 -0.11 0.19 -0.12 0.2 -0.12 0.19 -0.12 0.19 -0.12 0.19 -0.13 0.19 -0.13 0.2 -0.13 0.19 -0.13 0.18 0 0zm0 0c-1.23,1.72 -3.71,2.18 -5.54,1.03 -1.83,-1.15 -2.32,-3.47 -1.09,-5.19l6.63 4.16zm-5.51 5.42l-4.61 -6.1 0 0 0.11 -0.08 0.11 -0.08 0.11 -0.07 0.11 -0.09 0.11 -0.08 0.11 -0.09 0.12 -0.09 0.13 -0.11 0.11 -0.09 0.12 -0.1 0.12 -0.1 0.11 -0.1 0.11 -0.11 0.12 -0.11 0.12 -0.12 0.11 -0.11 0.12 -0.11 0.1 -0.11 0.11 -0.12 0.12 -0.13 0.11 -0.11 0.1 -0.12 0.12 -0.13 0.09 -0.11 0.11 -0.13 0.1 -0.13 0.1 -0.12 0.1 -0.12 0.1 -0.13 0.09 -0.12 0.1 -0.13 0.08 -0.12 6.64 4.15 -0.14 0.19 -0.13 0.19 -0.15 0.19 -0.14 0.18 -0.15 0.19 -0.15 0.18 -0.14 0.19 -0.16 0.18 -0.16 0.19 -0.15 0.17 -0.16 0.18 -0.17 0.19 -0.15 0.16 -0.17 0.18 -0.18 0.19 -0.17 0.17 -0.18 0.17 -0.17 0.16 -0.17 0.16 -0.18 0.18 -0.19 0.16 -0.18 0.16 -0.19 0.17 -0.2 0.16 -0.17 0.15 -0.19 0.15 -0.2 0.15 -0.2 0.16 -0.2 0.15 -0.21 0.14 -0.2 0.15 -0.21 0.13 0 0zm0 0c-1.8,1.19 -4.29,0.79 -5.56,-0.89 -1.27,-1.69 -0.85,-4.02 0.95,-5.21l4.61 6.1zm-6.22 2.84l-2.91 -6.96 0 -0.01 0.19 -0.06 0.17 -0.06 0.19 -0.07 0.18 -0.07 0.16 -0.05 0.17 -0.07 0.18 -0.06 0.16 -0.06 0.15 -0.06 0.16 -0.06 0.15 -0.06 0.15 -0.06 0.16 -0.06 0.15 -0.06 0.14 -0.05 0.12 -0.05 0.14 -0.06 0.16 -0.07 0.13 -0.06 0.1 -0.05 0.13 -0.06 0.13 -0.06 0.12 -0.06 0.14 -0.07 0.1 -0.05 0.12 -0.07 0.12 -0.07 0.1 -0.06 0.12 -0.07 0.11 -0.06 0.11 -0.07 0.11 -0.07 4.61 6.1 -0.21 0.14 -0.21 0.13 -0.2 0.13 -0.2 0.12 -0.22 0.12 -0.2 0.11 -0.21 0.11 -0.22 0.12 -0.19 0.09 -0.2 0.11 -0.2 0.09 -0.2 0.1 -0.23 0.1 -0.2 0.09 -0.17 0.07 -0.19 0.09 -0.22 0.09 -0.2 0.08 -0.19 0.07 -0.18 0.07 -0.19 0.08 -0.19 0.07 -0.18 0.07 -0.2 0.07 -0.19 0.07 -0.17 0.06 -0.18 0.07 -0.19 0.07 -0.17 0.06 -0.17 0.06 -0.19 0.07 -0.17 0.06 0.01 0zm-0.01 0c-2.05,0.75 -4.37,-0.2 -5.17,-2.13 -0.8,-1.92 0.22,-4.09 2.27,-4.84l2.9 6.97zm-5.84 2.09l-2.5 -7.1 0 0 0.13 -0.04 0.14 -0.04 0.14 -0.05 0.15 -0.05 0.14 -0.05 0.16 -0.05 0.14 -0.05 0.16 -0.05 0.17 -0.06 0.17 -0.06 0.15 -0.05 0.17 -0.07 0.17 -0.06 0.18 -0.06 0.18 -0.07 0.16 -0.06 0.17 -0.06 0.19 -0.07 0.17 -0.06 0.19 -0.07 0.18 -0.07 0.19 -0.07 0.17 -0.06 0.18 -0.07 0.2 -0.08 0.17 -0.06 0.18 -0.07 0.21 -0.07 0.18 -0.07 0.17 -0.06 0.19 -0.07 0.19 -0.07 2.91 6.96 -0.18 0.07 -0.17 0.06 -0.19 0.07 -0.19 0.07 -0.15 0.06 -0.19 0.07 -0.2 0.07 -0.17 0.06 -0.18 0.07 -0.2 0.08 -0.18 0.06 -0.18 0.07 -0.19 0.07 -0.19 0.07 -0.17 0.06 -0.2 0.07 -0.2 0.08 -0.17 0.06 -0.19 0.07 -0.18 0.06 -0.18 0.07 -0.2 0.07 -0.18 0.06 -0.17 0.06 -0.19 0.07 -0.18 0.06 -0.19 0.06 -0.18 0.06 -0.18 0.06 -0.17 0.06 -0.18 0.05 -0.18 0.06 0 0zm0 0c-2.09,0.65 -4.35,-0.42 -5.04,-2.38 -0.69,-1.96 0.44,-4.07 2.54,-4.72l2.5 7.1zm-2.11 1.19l-6.72 -4.04 0 0 0.18 -0.25 0.18 -0.25 0.19 -0.25 0.19 -0.23 0.2 -0.22 0.2 -0.22 0.2 -0.21 0.22 -0.21 0.22 -0.19 0.21 -0.18 0.23 -0.19 0.22 -0.16 0.23 -0.16 0.25 -0.16 0.22 -0.13 0.24 -0.14 0.23 -0.11 0.22 -0.11 0.24 -0.11 0.21 -0.09 0.2 -0.08 0.22 -0.08 0.2 -0.07 0.18 -0.07 0.19 -0.05 0.15 -0.05 0.18 -0.06 0.16 -0.05 0.14 -0.04 0.17 -0.05 0.13 -0.04 0.13 -0.04 2.5 7.1 -0.18 0.06 -0.17 0.05 -0.12 0.03 -0.15 0.05 -0.13 0.04 -0.11 0.03 -0.12 0.04 -0.09 0.03 -0.08 0.03 -0.08 0.03 -0.04 0.01 -0.06 0.03 -0.05 0.02 -0.03 0.01 -0.03 0.02 -0.03 0.01 -0.02 0.01 -0.02 0.02 -0.01 0 -0.02 0.01 -0.02 0.02 -0.02 0.01 -0.04 0.03 -0.03 0.03 -0.03 0.03 -0.05 0.05 -0.04 0.05 -0.06 0.07 -0.07 0.08 -0.06 0.08 -0.07 0.09 -0.08 0.12 0 0zm0 0c-1.19,1.73 -3.66,2.24 -5.52,1.12 -1.85,-1.11 -2.39,-3.43 -1.2,-5.16l6.72 4.04zm-4.39 9.71l-7.48 -2.63 0 0 0.17 -0.43 0.18 -0.43 0.17 -0.42 0.16 -0.41 0.17 -0.42 0.17 -0.4 0.16 -0.4 0.17 -0.41 0.16 -0.39 0.16 -0.38 0.16 -0.38 0.16 -0.38 0.16 -0.38 0.15 -0.36 0.16 -0.35 0.16 -0.36 0.15 -0.35 0.16 -0.34 0.15 -0.33 0.15 -0.33 0.16 -0.32 0.15 -0.32 0.16 -0.31 0.15 -0.3 0.16 -0.3 0.15 -0.29 0.16 -0.29 0.16 -0.28 0.16 -0.27 0.17 -0.26 0.17 -0.27 0.17 -0.26 6.72 4.04 -0.09 0.12 -0.09 0.14 -0.09 0.17 -0.11 0.18 -0.11 0.18 -0.11 0.2 -0.11 0.22 -0.12 0.22 -0.13 0.25 -0.12 0.25 -0.13 0.25 -0.13 0.28 -0.13 0.28 -0.14 0.3 -0.13 0.3 -0.15 0.31 -0.14 0.32 -0.14 0.33 -0.15 0.35 -0.14 0.34 -0.15 0.35 -0.16 0.37 -0.15 0.37 -0.16 0.38 -0.15 0.38 -0.16 0.39 -0.17 0.4 -0.16 0.41 -0.16 0.41 -0.17 0.41 -0.17 0.42 -0.17 0.43 0 0zm0 0c-0.78,1.93 -3.08,2.91 -5.15,2.18 -2.06,-0.72 -3.1,-2.88 -2.33,-4.81l7.48 2.63zm-4.79 12.59l-7.67 -2.11 0.01 0 0.09 -0.3 0.11 -0.32 0.11 -0.33 0.11 -0.32 0.12 -0.36 0.13 -0.36 0.13 -0.36 0.13 -0.38 0.14 -0.38 0.15 -0.4 0.15 -0.4 0.15 -0.39 0.15 -0.42 0.16 -0.42 0.17 -0.43 0.16 -0.43 0.17 -0.43 0.17 -0.44 0.17 -0.45 0.18 -0.44 0.17 -0.44 0.18 -0.46 0.18 -0.45 0.18 -0.45 0.17 -0.44 0.18 -0.46 0.18 -0.45 0.18 -0.44 0.18 -0.45 0.17 -0.44 0.18 -0.44 0.17 -0.43 7.48 2.63 -0.18 0.43 -0.17 0.44 -0.18 0.44 -0.17 0.43 -0.18 0.45 -0.18 0.45 -0.17 0.44 -0.18 0.44 -0.18 0.45 -0.17 0.45 -0.18 0.43 -0.17 0.44 -0.17 0.45 -0.17 0.42 -0.16 0.43 -0.17 0.43 -0.16 0.42 -0.16 0.41 -0.15 0.4 -0.15 0.4 -0.15 0.4 -0.14 0.38 -0.14 0.37 -0.13 0.36 -0.13 0.35 -0.12 0.34 -0.11 0.33 -0.11 0.3 -0.1 0.32 -0.1 0.28 -0.08 0.26 -0.09 0.25 0.01 0zm-0.01 0c-0.62,1.98 -2.83,3.12 -4.95,2.54 -2.11,-0.59 -3.32,-2.67 -2.7,-4.65l7.65 2.11zm-1.18 -0.35l-3.89 6.53 0 0 -0.17 -0.09 -0.16 -0.09 -0.17 -0.09 -0.19 -0.12 -0.22 -0.14 -0.24 -0.17 -0.22 -0.17 -0.23 -0.19 -0.26 -0.26 -0.23 -0.26 -0.23 -0.29 -0.23 -0.34 -0.19 -0.34 -0.15 -0.34 -0.13 -0.34 -0.1 -0.37 -0.08 -0.38 -0.03 -0.32 -0.03 -0.31 0 -0.33 0.01 -0.3 0.03 -0.28 0.03 -0.28 0.04 -0.27 0.05 -0.27 0.05 -0.26 0.07 -0.27 0.06 -0.27 0.08 -0.28 0.08 -0.29 0.08 -0.27 0.09 -0.31 7.67 2.11 -0.07 0.23 -0.07 0.22 -0.05 0.19 -0.05 0.16 -0.04 0.16 -0.02 0.12 -0.03 0.11 -0.01 0.09 -0.01 0.06 -0.01 0.03 0 0.01 0 -0.03 0 -0.07 0 -0.06 -0.01 -0.1 -0.04 -0.17 -0.05 -0.17 -0.05 -0.15 -0.08 -0.17 -0.09 -0.17 -0.13 -0.19 -0.11 -0.14 -0.1 -0.12 -0.13 -0.12 -0.07 -0.06 -0.06 -0.05 -0.06 -0.04 -0.03 -0.02 0.01 0.01 0.04 0.02 0.06 0.03 0.06 0.04 0.01 0zm-0.01 0c1.93,1 2.62,3.28 1.55,5.08 -1.07,1.81 -3.5,2.45 -5.43,1.45l3.88 -6.53zm5.2 2.45l-3.86 6.55 0.01 0 -0.14 -0.07 -0.14 -0.07 -0.15 -0.07 -0.15 -0.08 -0.15 -0.07 -0.17 -0.08 -0.16 -0.08 -0.16 -0.07 -0.16 -0.08 -0.17 -0.08 -0.18 -0.08 -0.17 -0.08 -0.16 -0.07 -0.18 -0.08 -0.19 -0.09 -0.15 -0.07 -0.17 -0.08 -0.19 -0.08 -0.17 -0.08 -0.16 -0.07 -0.18 -0.08 -0.17 -0.08 -0.17 -0.08 -0.16 -0.08 -0.16 -0.07 -0.18 -0.09 -0.16 -0.07 -0.16 -0.08 -0.15 -0.07 -0.16 -0.08 -0.17 -0.09 -0.14 -0.07 3.89 -6.53 0.1 0.05 0.08 0.04 0.11 0.06 0.12 0.06 0.13 0.06 0.13 0.06 0.12 0.06 0.15 0.07 0.16 0.07 0.15 0.07 0.15 0.07 0.16 0.07 0.17 0.08 0.17 0.08 0.16 0.07 0.18 0.08 0.19 0.09 0.17 0.08 0.17 0.08 0.19 0.08 0.19 0.09 0.17 0.08 0.19 0.08 0.19 0.1 0.19 0.08 0.18 0.09 0.18 0.09 0.19 0.09 0.19 0.09 0.19 0.09 0.19 0.1 0.18 0.09 0 0zm0 0c1.93,1 2.63,3.27 1.57,5.08 -1.06,1.81 -3.49,2.47 -5.42,1.47l3.85 -6.55zm4.61 3.27l-6.16 4.75 0 0.01 0.01 0.01 -0.01 -0.01 0 0 0 0 -0.04 -0.04 -0.05 -0.05 -0.02 -0.01 -0.01 -0.02 -0.05 -0.03 -0.05 -0.05 -0.05 -0.03 -0.06 -0.05 -0.05 -0.04 -0.07 -0.05 -0.07 -0.05 -0.06 -0.04 -0.1 -0.07 -0.08 -0.05 -0.07 -0.05 -0.1 -0.06 -0.11 -0.07 -0.09 -0.06 -0.09 -0.05 -0.1 -0.07 -0.12 -0.07 -0.12 -0.07 -0.11 -0.06 -0.11 -0.06 -0.12 -0.07 -0.14 -0.07 -0.14 -0.07 -0.13 -0.07 3.86 -6.55 0.19 0.1 0.17 0.09 0.17 0.09 0.18 0.1 0.18 0.1 0.18 0.1 0.15 0.09 0.16 0.1 0.16 0.09 0.17 0.1 0.17 0.11 0.13 0.08 0.14 0.09 0.17 0.11 0.15 0.1 0.12 0.09 0.15 0.1 0.14 0.1 0.13 0.09 0.14 0.11 0.13 0.1 0.13 0.1 0.12 0.1 0.12 0.1 0.15 0.13 0.13 0.11 0.09 0.09 0.1 0.09 0.13 0.13 0.13 0.12 0.11 0.12 0.11 0.13 0.01 0.01zm-0.01 -0.01c1.41,1.59 1.17,3.95 -0.53,5.26 -1.69,1.32 -4.21,1.1 -5.62,-0.49l6.15 -4.77zm-2.33 7.26l-1.71 -7.31 -0.01 0 -0.11 0.03 -0.17 0.05 -0.12 0.04 -0.16 0.06 -0.23 0.1 -0.16 0.1 -0.25 0.15 -0.23 0.18 -0.19 0.17 -0.25 0.28 -0.2 0.26 -0.16 0.26 -0.15 0.32 -0.1 0.28 -0.08 0.32 -0.04 0.31 -0.02 0.29 0.01 0.2 0.03 0.24 0.04 0.23 0.05 0.19 0.05 0.14 0.05 0.13 0.04 0.09 0.07 0.12 0.03 0.06 0.02 0.03 0.06 0.1 0.03 0.04 0 0 0.03 0.03 0.01 0.01 6.16 -4.75 0.11 0.13 0.12 0.15 0.09 0.11 0.11 0.15 0.14 0.21 0.09 0.14 0.09 0.16 0.11 0.22 0.09 0.19 0.09 0.23 0.08 0.24 0.08 0.28 0.06 0.31 0.04 0.33 0.01 0.29 -0.02 0.37 -0.06 0.38 -0.1 0.39 -0.12 0.36 -0.19 0.38 -0.2 0.33 -0.23 0.32 -0.31 0.33 -0.25 0.23 -0.3 0.23 -0.32 0.2 -0.25 0.14 -0.31 0.14 -0.26 0.1 -0.22 0.08 -0.28 0.07 -0.22 0.06 -0.01 0zm0.01 0c-2.16,0.44 -4.29,-0.83 -4.76,-2.85 -0.48,-2.01 0.88,-4.01 3.03,-4.46l1.73 7.31zm-7.88 -1.4l2.57 -7.08 0 0 0.34 0.1 0.33 0.11 0.31 0.1 0.29 0.08 0.28 0.09 0.27 0.08 0.25 0.07 0.23 0.07 0.22 0.06 0.21 0.06 0.19 0.05 0.17 0.04 0.18 0.04 0.14 0.04 0.14 0.03 0.13 0.03 0.11 0.02 0.07 0.01 0.09 0.02 0.08 0.01 0.03 0.01 0.05 0 -0.01 0 0.01 0 0.01 0 -0.04 0 -0.06 0 -0.05 0 -0.07 0.01 -0.09 0.01 -0.11 0.01 -0.11 0.02 1.71 7.31 -0.23 0.04 -0.24 0.03 -0.23 0.03 -0.22 0.01 -0.21 0.01 -0.23 0 -0.22 -0.01 -0.18 -0.01 -0.2 -0.01 -0.23 -0.03 -0.18 -0.02 -0.21 -0.03 -0.19 -0.03 -0.19 -0.04 -0.23 -0.04 -0.21 -0.04 -0.2 -0.05 -0.22 -0.05 -0.23 -0.05 -0.22 -0.06 -0.25 -0.06 -0.26 -0.07 -0.25 -0.07 -0.27 -0.07 -0.28 -0.08 -0.29 -0.09 -0.3 -0.09 -0.31 -0.09 -0.34 -0.1 -0.34 -0.11 -0.34 -0.11 -0.37 -0.11 0 0zm0 0c-2.09,-0.67 -3.21,-2.79 -2.5,-4.75 0.71,-1.95 2.98,-3 5.07,-2.33l-2.57 7.08zm-14.73 -5.04l2.81 -7 0 0 0.4 0.14 0.41 0.15 0.43 0.15 0.43 0.15 0.45 0.16 0.45 0.16 0.47 0.16 0.47 0.16 0.47 0.17 0.49 0.17 0.48 0.16 0.49 0.17 0.49 0.17 0.49 0.17 0.49 0.17 0.5 0.17 0.49 0.17 0.49 0.17 0.48 0.17 0.48 0.16 0.48 0.16 0.48 0.16 0.46 0.16 0.46 0.16 0.44 0.14 0.44 0.15 0.43 0.14 0.42 0.14 0.41 0.13 0.38 0.13 0.38 0.12 0.36 0.12 -2.57 7.08 -0.38 -0.12 -0.4 -0.13 -0.41 -0.14 -0.42 -0.13 -0.43 -0.15 -0.44 -0.14 -0.45 -0.15 -0.46 -0.16 -0.47 -0.15 -0.47 -0.16 -0.48 -0.17 -0.48 -0.16 -0.49 -0.17 -0.5 -0.17 -0.49 -0.17 -0.5 -0.17 -0.49 -0.17 -0.5 -0.17 -0.5 -0.17 -0.5 -0.18 -0.49 -0.17 -0.49 -0.17 -0.48 -0.17 -0.48 -0.16 -0.47 -0.17 -0.47 -0.16 -0.46 -0.16 -0.44 -0.16 -0.44 -0.15 -0.43 -0.15 -0.41 -0.15 -0.41 -0.14 0 0zm0 0c-2.06,-0.72 -3.11,-2.88 -2.33,-4.81 0.77,-1.93 3.07,-2.91 5.14,-2.19l-2.81 7zm-7.7 -2.98l4.14 -6.39 0.01 0 0.01 0.01 0.02 0.01 0.04 0.02 0.07 0.03 0.07 0.04 0.05 0.02 0.1 0.05 0.11 0.04 0.1 0.04 0.12 0.06 0.14 0.05 0.14 0.06 0.17 0.06 0.18 0.07 0.17 0.07 0.18 0.07 0.22 0.08 0.21 0.08 0.21 0.07 0.24 0.09 0.26 0.09 0.26 0.1 0.27 0.1 0.28 0.1 0.3 0.1 0.31 0.11 0.31 0.11 0.35 0.13 0.34 0.12 0.36 0.12 0.38 0.14 0.39 0.13 -2.81 7 -0.39 -0.13 -0.37 -0.13 -0.37 -0.13 -0.35 -0.13 -0.33 -0.12 -0.34 -0.12 -0.32 -0.11 -0.29 -0.1 -0.31 -0.11 -0.28 -0.1 -0.27 -0.1 -0.26 -0.1 -0.25 -0.08 -0.25 -0.1 -0.24 -0.09 -0.21 -0.08 -0.23 -0.08 -0.22 -0.09 -0.2 -0.07 -0.19 -0.08 -0.19 -0.07 -0.18 -0.08 -0.18 -0.07 -0.19 -0.08 -0.16 -0.07 -0.16 -0.07 -0.18 -0.09 -0.16 -0.07 -0.15 -0.07 -0.15 -0.08 -0.16 -0.09 -0.17 -0.09 0 0zm0 0c-1.88,-1.07 -2.48,-3.37 -1.34,-5.13 1.14,-1.77 3.6,-2.33 5.49,-1.26l-4.15 6.39zm-2.26 -5.74l7.47 2.65 -0.01 0.01 -0.02 0.06 0.01 -0.02 0.01 -0.03 0.01 -0.03 0 0 0.03 -0.1 0.03 -0.12 0 -0.01 0.04 -0.18 0.03 -0.19 0 -0.1 0.01 -0.19 0 -0.18 -0.03 -0.25 -0.05 -0.25 -0.05 -0.21 -0.07 -0.19 -0.08 -0.19 -0.12 -0.24 -0.1 -0.15 -0.09 -0.13 -0.1 -0.14 -0.1 -0.11 -0.09 -0.09 -0.07 -0.07 -0.09 -0.07 -0.06 -0.06 -0.02 -0.01 -0.07 -0.05 -0.02 -0.01 0.01 0 -0.01 0 -4.14 6.39 -0.16 -0.09 -0.15 -0.09 -0.16 -0.1 -0.18 -0.14 -0.15 -0.1 -0.17 -0.14 -0.18 -0.15 -0.16 -0.15 -0.16 -0.17 -0.17 -0.2 -0.17 -0.21 -0.14 -0.21 -0.15 -0.23 -0.16 -0.32 -0.11 -0.26 -0.09 -0.26 -0.07 -0.28 -0.06 -0.32 -0.04 -0.32 0 -0.25 0.01 -0.26 0.01 -0.18 0.04 -0.26 0.05 -0.24 0.02 -0.09 0.05 -0.19 0.05 -0.16 0.03 -0.08 0.03 -0.1 0.04 -0.09 0.04 -0.1 0 -0.01 0 0.01zm0 -0.01c0.79,-1.93 3.1,-2.89 5.16,-2.16 2.05,0.74 3.09,2.9 2.3,4.83l-7.46 -2.67zm4.36 -3.27l0.82 7.43 -0.01 0 0.08 0 0.12 -0.02 0.13 -0.03 0.08 -0.02 0.17 -0.04 0.17 -0.07 0.07 -0.02 0.12 -0.06 0.21 -0.1 0.14 -0.08 0.07 -0.05 0.11 -0.08 0.14 -0.1 0.1 -0.09 0.11 -0.11 0.13 -0.14 0.04 -0.04 0.03 -0.04 0.09 -0.12 0.04 -0.05 0.06 -0.09 0.05 -0.1 0.03 -0.04 -0.02 0.04 0.01 -0.02 0.04 -0.1 0.01 -0.01 -0.02 0.03 0.01 -0.02 0 0.01 -0.01 0.03 -0.01 0.03 -7.47 -2.65 0.02 -0.05 0.01 -0.03 0.03 -0.07 0.04 -0.09 0.02 -0.04 0.04 -0.09 0.08 -0.17 0.05 -0.09 0.02 -0.04 0.06 -0.11 0.1 -0.17 0.1 -0.15 0.08 -0.13 0.14 -0.18 0.09 -0.11 0.09 -0.1 0.19 -0.21 0.17 -0.16 0.17 -0.14 0.21 -0.17 0.19 -0.13 0.14 -0.09 0.22 -0.13 0.29 -0.15 0.22 -0.09 0.16 -0.07 0.28 -0.09 0.26 -0.08 0.2 -0.05 0.25 -0.05 0.24 -0.03 0.21 -0.03 -0.01 0.01zm0.01 -0.01c2.19,-0.2 4.15,1.29 4.37,3.35 0.22,2.05 -1.38,3.89 -3.57,4.09l-0.8 -7.44zm4.9 0.72l-1.98 7.25 0.01 0 -0.16 -0.04 -0.14 -0.03 -0.14 -0.04 -0.14 -0.03 -0.13 -0.03 -0.15 -0.04 -0.14 -0.03 -0.1 -0.02 -0.12 -0.03 -0.12 -0.03 -0.1 -0.02 -0.12 -0.03 -0.08 -0.01 -0.09 -0.02 -0.14 -0.03 -0.07 -0.02 -0.05 -0.01 -0.1 -0.01 -0.06 -0.02 -0.03 0 -0.09 -0.01 -0.05 -0.01 -0.01 0 -0.04 -0.01 0 0 -0.02 0 -0.01 0 0.07 0 0.01 0.01 0.01 -0.01 0.12 0 0.07 -0.01 -0.82 -7.43 0.2 -0.02 0.26 -0.01 0.16 0 0.16 0 0.23 0.01 0.15 0.01 0.15 0.01 0.17 0.02 0.15 0.01 0.17 0.02 0.14 0.03 0.12 0.01 0.17 0.03 0.14 0.03 0.12 0.02 0.17 0.03 0.15 0.03 0.1 0.02 0.14 0.03 0.16 0.03 0.12 0.03 0.16 0.04 0.13 0.03 0.14 0.03 0.16 0.04 0.13 0.03 0.12 0.03 0.15 0.03 0.14 0.04 0.15 0.03 0.16 0.04 0.14 0.03 0 0zm0 0c2.13,0.51 3.42,2.55 2.88,4.55 -0.54,2 -2.72,3.21 -4.85,2.7l1.97 -7.25zm4.87 1.15l-2.01 7.24 0 0 -0.13 -0.03 -0.12 -0.03 -0.1 -0.03 -0.13 -0.03 -0.17 -0.04 -0.11 -0.03 -0.15 -0.03 -0.15 -0.04 -0.13 -0.03 -0.15 -0.03 -0.14 -0.03 -0.17 -0.04 -0.16 -0.04 -0.15 -0.04 -0.15 -0.03 -0.15 -0.04 -0.18 -0.04 -0.16 -0.04 -0.16 -0.03 -0.15 -0.04 -0.17 -0.04 -0.16 -0.04 -0.16 -0.03 -0.18 -0.05 -0.15 -0.03 -0.15 -0.04 -0.16 -0.03 -0.17 -0.04 -0.16 -0.04 -0.17 -0.04 -0.14 -0.04 -0.16 -0.03 1.98 -7.25 0.15 0.04 0.16 0.04 0.14 0.03 0.15 0.04 0.15 0.03 0.15 0.04 0.17 0.04 0.18 0.04 0.14 0.03 0.16 0.04 0.16 0.04 0.16 0.03 0.17 0.04 0.16 0.04 0.16 0.04 0.15 0.03 0.16 0.04 0.17 0.04 0.17 0.04 0.14 0.03 0.14 0.04 0.17 0.04 0.14 0.03 0.17 0.04 0.13 0.03 0.15 0.03 0.16 0.04 0.11 0.03 0.13 0.03 0.16 0.04 0.13 0.03 0.12 0.03 0.01 0zm-0.01 0c2.13,0.51 3.42,2.55 2.87,4.55 -0.56,2 -2.74,3.2 -4.87,2.69l2 -7.24zm2.37 0.59l-1.94 7.26 0 0 -0.08 -0.02 -0.05 -0.01 -0.03 -0.01 -0.08 -0.02 -0.08 -0.02 -0.04 -0.01 -0.03 -0.01 -0.08 -0.02 -0.09 -0.02 -0.03 -0.01 -0.07 -0.02 -0.08 -0.02 -0.04 -0.01 -0.08 -0.02 -0.08 -0.02 -0.03 -0.01 -0.08 -0.02 -0.09 -0.02 -0.08 -0.02 -0.08 -0.02 -0.07 -0.02 -0.09 -0.02 -0.06 -0.02 -0.09 -0.02 -0.12 -0.03 -0.07 -0.02 -0.09 -0.02 -0.12 -0.03 -0.08 -0.02 -0.1 -0.03 -0.14 -0.03 -0.1 -0.02 2.01 -7.24 0.13 0.03 0.09 0.03 0.12 0.02 0.14 0.04 0.08 0.02 0.11 0.02 0.12 0.04 0.07 0.01 0.1 0.03 0.11 0.03 0.08 0.02 0.09 0.02 0.08 0.02 0.07 0.02 0.06 0.01 0.06 0.02 0.11 0.03 0.06 0.01 0.04 0.01 0.09 0.03 0.05 0.01 0.05 0.01 0.08 0.02 0.02 0.01 0.03 0 0.08 0.02 0.07 0.02 0.02 0.01 0.02 0 0.07 0.02 0.04 0.01 0.02 0 0 0zm0 0c2.14,0.5 3.44,2.54 2.9,4.54 -0.53,2 -2.7,3.22 -4.84,2.72l1.94 -7.26zm-2.11 -1.03l7.3 3.04 0 0 -0.16 0.32 -0.15 0.31 -0.14 0.29 -0.14 0.28 -0.15 0.27 -0.13 0.25 -0.14 0.25 -0.12 0.21 -0.13 0.22 -0.14 0.22 -0.13 0.21 -0.15 0.22 -0.14 0.18 -0.15 0.19 -0.16 0.2 -0.19 0.21 -0.22 0.21 -0.24 0.22 -0.23 0.18 -0.29 0.2 -0.39 0.23 -0.35 0.16 -0.38 0.14 -0.51 0.13 -0.39 0.06 -0.36 0.03 -0.44 0 -0.3 -0.02 -0.24 -0.03 -0.25 -0.05 -0.11 -0.02 -0.11 -0.02 1.94 -7.26 -0.01 0 -0.02 0 -0.15 -0.03 -0.14 -0.02 -0.21 -0.01 -0.34 0 -0.27 0.02 -0.29 0.04 -0.4 0.11 -0.28 0.1 -0.23 0.11 -0.28 0.16 -0.17 0.12 -0.11 0.09 -0.11 0.1 -0.09 0.08 -0.04 0.05 -0.02 0.02 0.01 -0.01 0.02 -0.03 0.02 -0.03 0.04 -0.07 0.06 -0.08 0.06 -0.11 0.08 -0.14 0.09 -0.15 0.09 -0.17 0.09 -0.19 0.11 -0.21 0.12 -0.24 0.13 -0.26 0.13 -0.27 0 -0.01zm0 0.01c0.89,-1.89 3.25,-2.74 5.27,-1.91 2.01,0.84 2.92,3.05 2.03,4.94l-7.3 -3.03zm6.11 -14.5l7.46 2.66 0 0 -0.18 0.45 -0.19 0.45 -0.18 0.46 -0.2 0.47 -0.19 0.48 -0.2 0.49 -0.2 0.5 -0.21 0.5 -0.2 0.5 -0.21 0.51 -0.21 0.51 -0.21 0.51 -0.21 0.51 -0.21 0.51 -0.21 0.51 -0.22 0.51 -0.2 0.5 -0.21 0.5 -0.21 0.49 -0.21 0.49 -0.2 0.48 -0.2 0.47 -0.2 0.46 -0.2 0.46 -0.19 0.44 -0.18 0.42 -0.19 0.42 -0.18 0.41 -0.17 0.39 -0.17 0.37 -0.17 0.36 -0.16 0.34 -7.3 -3.04 0.14 -0.3 0.15 -0.32 0.16 -0.34 0.16 -0.36 0.17 -0.38 0.17 -0.39 0.18 -0.42 0.19 -0.42 0.19 -0.43 0.19 -0.45 0.19 -0.46 0.2 -0.47 0.2 -0.47 0.21 -0.48 0.2 -0.5 0.21 -0.49 0.21 -0.5 0.2 -0.5 0.21 -0.51 0.21 -0.5 0.21 -0.51 0.21 -0.5 0.2 -0.51 0.21 -0.5 0.2 -0.49 0.2 -0.49 0.2 -0.49 0.19 -0.48 0.2 -0.47 0.18 -0.46 0.19 -0.46 0.18 -0.44 0 0zm0 0c0.78,-1.92 3.09,-2.89 5.15,-2.16 2.06,0.73 3.09,2.89 2.31,4.82l-7.46 -2.66zm2.82 -8.04l7.96 0.55 0 -0.01 -0.02 0.28 -0.03 0.27 -0.04 0.26 -0.04 0.27 -0.06 0.28 -0.05 0.27 -0.07 0.27 -0.06 0.27 -0.07 0.27 -0.08 0.28 -0.08 0.27 -0.09 0.28 -0.09 0.29 -0.09 0.28 -0.1 0.29 -0.1 0.3 -0.11 0.29 -0.11 0.31 -0.12 0.32 -0.12 0.31 -0.12 0.33 -0.13 0.34 -0.13 0.34 -0.15 0.36 -0.14 0.35 -0.14 0.37 -0.16 0.37 -0.15 0.39 -0.16 0.4 -0.17 0.41 -0.17 0.42 -0.17 0.42 -7.46 -2.66 0.17 -0.43 0.17 -0.41 0.16 -0.4 0.16 -0.39 0.15 -0.38 0.15 -0.37 0.14 -0.36 0.14 -0.34 0.13 -0.33 0.12 -0.32 0.12 -0.31 0.12 -0.3 0.11 -0.29 0.1 -0.27 0.09 -0.26 0.1 -0.26 0.08 -0.24 0.08 -0.24 0.07 -0.22 0.07 -0.21 0.06 -0.2 0.06 -0.19 0.05 -0.18 0.04 -0.17 0.04 -0.15 0.03 -0.15 0.03 -0.14 0.03 -0.11 0.01 -0.12 0.02 -0.12 0.01 -0.09 0.01 -0.08 0 -0.01zm0 0.01c0.16,-2.06 2.07,-3.61 4.27,-3.46 2.19,0.14 3.85,1.93 3.69,3.99l-7.96 -0.53zm-1.11 -2.66l6.93 -3.71 0 0 0.1 0.16 0.09 0.16 0.09 0.15 0.1 0.16 0.1 0.17 0.1 0.16 0.1 0.19 0.1 0.16 0.09 0.18 0.1 0.17 0.09 0.19 0.11 0.21 0.09 0.18 0.09 0.19 0.09 0.22 0.09 0.22 0.09 0.22 0.07 0.22 0.08 0.22 0.06 0.23 0.07 0.24 0.06 0.26 0.05 0.25 0.05 0.26 0.04 0.26 0.03 0.24 0.02 0.28 0.01 0.28 0.01 0.24 0 0.28 -0.01 0.29 -0.02 0.27 -7.96 -0.55 0.01 -0.08 0 -0.05 0 -0.06 0 -0.09 -0.01 -0.04 0 -0.04 -0.01 -0.07 0 -0.05 -0.01 -0.04 -0.01 -0.05 -0.01 -0.04 -0.01 -0.05 -0.02 -0.05 -0.02 -0.06 -0.03 -0.07 -0.02 -0.06 -0.02 -0.06 -0.03 -0.06 -0.04 -0.09 -0.04 -0.09 -0.04 -0.07 -0.05 -0.1 -0.06 -0.11 -0.06 -0.1 -0.07 -0.12 -0.05 -0.11 -0.08 -0.13 -0.08 -0.12 -0.07 -0.13 -0.1 -0.16 -0.09 -0.15 -0.09 -0.15 0 0zm0 0c-1.09,-1.79 -0.43,-4.07 1.48,-5.1 1.92,-1.02 4.36,-0.4 5.45,1.39l-6.93 3.71zm-3.48 -6.37l7.37 -2.86 0 0 0.08 0.17 0.08 0.18 0.09 0.18 0.07 0.16 0.09 0.18 0.09 0.19 0.09 0.17 0.09 0.18 0.09 0.18 0.09 0.17 0.1 0.18 0.1 0.18 0.09 0.18 0.1 0.19 0.1 0.18 0.09 0.16 0.1 0.17 0.11 0.2 0.1 0.16 0.1 0.17 0.1 0.17 0.1 0.18 0.11 0.18 0.09 0.16 0.1 0.17 0.1 0.16 0.1 0.17 0.1 0.16 0.1 0.17 0.1 0.16 0.09 0.15 0.1 0.16 -6.93 3.71 -0.1 -0.15 -0.1 -0.17 -0.1 -0.17 -0.1 -0.16 -0.1 -0.18 -0.11 -0.17 -0.11 -0.18 -0.11 -0.19 -0.11 -0.19 -0.11 -0.18 -0.11 -0.18 -0.11 -0.19 -0.11 -0.2 -0.12 -0.21 -0.11 -0.18 -0.11 -0.2 -0.12 -0.22 -0.11 -0.2 -0.12 -0.2 -0.11 -0.21 -0.11 -0.21 -0.11 -0.21 -0.12 -0.22 -0.11 -0.22 -0.11 -0.22 -0.11 -0.22 -0.11 -0.21 -0.1 -0.22 -0.11 -0.24 -0.11 -0.22 -0.1 -0.22 -0.1 -0.23 0 0zm0 0c-0.84,-1.91 0.12,-4.09 2.16,-4.88 2.04,-0.79 4.37,0.11 5.21,2.02l-7.37 2.86zm-2.06 -7.21l7.94 -0.85 0 0 0.01 0.14 0.03 0.16 0.02 0.14 0.02 0.14 0.03 0.16 0.02 0.15 0.03 0.15 0.03 0.17 0.03 0.14 0.04 0.16 0.04 0.17 0.04 0.16 0.04 0.16 0.04 0.16 0.05 0.17 0.04 0.16 0.04 0.15 0.06 0.18 0.05 0.17 0.05 0.17 0.05 0.15 0.06 0.17 0.06 0.18 0.07 0.18 0.06 0.17 0.06 0.15 0.07 0.18 0.07 0.18 0.06 0.16 0.07 0.17 0.08 0.18 0.07 0.17 -7.37 2.86 -0.1 -0.23 -0.1 -0.22 -0.09 -0.23 -0.1 -0.24 -0.09 -0.22 -0.08 -0.22 -0.1 -0.24 -0.08 -0.24 -0.08 -0.22 -0.08 -0.21 -0.07 -0.23 -0.08 -0.25 -0.07 -0.23 -0.07 -0.21 -0.07 -0.22 -0.07 -0.24 -0.06 -0.23 -0.06 -0.22 -0.06 -0.22 -0.05 -0.23 -0.06 -0.23 -0.05 -0.21 -0.05 -0.23 -0.05 -0.24 -0.04 -0.21 -0.04 -0.22 -0.04 -0.23 -0.04 -0.2 -0.04 -0.24 -0.03 -0.22 -0.03 -0.21 -0.03 -0.22 0 0zm0 0c-0.25,-2.05 1.33,-3.91 3.52,-4.14 2.19,-0.23 4.17,1.24 4.42,3.29l-7.94 0.85zm0.79 -7.45l7.63 2.2 0 0 -0.06 0.17 -0.05 0.17 -0.05 0.16 -0.04 0.16 -0.04 0.16 -0.05 0.16 -0.03 0.13 -0.03 0.15 -0.03 0.15 -0.03 0.14 -0.03 0.14 -0.02 0.13 -0.02 0.13 -0.02 0.13 -0.01 0.13 -0.02 0.12 -0.01 0.14 -0.01 0.12 0 0.11 -0.01 0.13 0 0.13 -0.01 0.12 0 0.13 0 0.12 0.01 0.12 0 0.14 0.01 0.14 0.01 0.12 0.01 0.13 0.01 0.14 0.02 0.14 0.02 0.14 -7.94 0.85 -0.02 -0.22 -0.03 -0.22 -0.02 -0.22 -0.01 -0.22 -0.02 -0.23 -0.01 -0.22 -0.01 -0.21 -0.01 -0.23 0 -0.24 0 -0.22 0 -0.23 0.01 -0.22 0.01 -0.22 0.02 -0.25 0.01 -0.24 0.03 -0.22 0.02 -0.23 0.03 -0.23 0.03 -0.24 0.04 -0.24 0.04 -0.24 0.04 -0.24 0.05 -0.23 0.05 -0.23 0.05 -0.24 0.07 -0.26 0.06 -0.23 0.06 -0.24 0.07 -0.25 0.07 -0.25 0.08 -0.24 0.08 -0.25 0 0zm0 0c0.65,-1.97 2.88,-3.08 4.99,-2.48 2.1,0.61 3.29,2.71 2.64,4.68l-7.63 -2.2zm4.4 -9.2l7.02 3.55 0 0.01 -0.18 0.3 -0.17 0.31 -0.17 0.3 -0.17 0.3 -0.16 0.29 -0.16 0.29 -0.16 0.29 -0.14 0.27 -0.15 0.28 -0.15 0.27 -0.14 0.27 -0.13 0.27 -0.13 0.26 -0.13 0.25 -0.12 0.25 -0.12 0.25 -0.12 0.24 -0.11 0.24 -0.11 0.24 -0.11 0.23 -0.1 0.23 -0.09 0.22 -0.1 0.22 -0.09 0.22 -0.08 0.19 -0.09 0.22 -0.07 0.2 -0.08 0.2 -0.07 0.2 -0.07 0.18 -0.06 0.18 -0.06 0.18 -7.63 -2.2 0.08 -0.25 0.09 -0.26 0.1 -0.26 0.09 -0.24 0.09 -0.26 0.1 -0.26 0.11 -0.26 0.11 -0.27 0.11 -0.27 0.11 -0.26 0.12 -0.28 0.13 -0.27 0.12 -0.27 0.13 -0.29 0.13 -0.27 0.14 -0.29 0.14 -0.29 0.14 -0.29 0.14 -0.29 0.15 -0.3 0.16 -0.3 0.16 -0.3 0.15 -0.3 0.16 -0.3 0.18 -0.32 0.17 -0.31 0.17 -0.31 0.18 -0.33 0.18 -0.32 0.18 -0.32 0.19 -0.33 0.19 -0.33 0 0zm0 0c1.05,-1.82 3.47,-2.49 5.41,-1.51 1.94,0.98 2.66,3.25 1.61,5.07l-7.02 -3.56zm6.33 -10.27l6.89 3.77 0 0 -0.17 0.26 -0.16 0.26 -0.17 0.27 -0.18 0.28 -0.17 0.28 -0.18 0.29 -0.19 0.3 -0.19 0.3 -0.19 0.3 -0.2 0.32 -0.2 0.31 -0.2 0.32 -0.2 0.32 -0.2 0.32 -0.21 0.34 -0.2 0.32 -0.21 0.33 -0.2 0.33 -0.21 0.34 -0.21 0.33 -0.2 0.33 -0.21 0.34 -0.21 0.34 -0.2 0.33 -0.2 0.33 -0.2 0.34 -0.2 0.33 -0.19 0.32 -0.19 0.32 -0.19 0.32 -0.19 0.32 -0.18 0.31 -7.02 -3.55 0.19 -0.34 0.2 -0.34 0.2 -0.33 0.21 -0.35 0.2 -0.34 0.21 -0.35 0.2 -0.34 0.21 -0.34 0.22 -0.36 0.2 -0.34 0.21 -0.34 0.22 -0.35 0.21 -0.35 0.21 -0.33 0.21 -0.34 0.21 -0.34 0.22 -0.34 0.2 -0.33 0.21 -0.33 0.2 -0.32 0.21 -0.33 0.19 -0.31 0.2 -0.31 0.2 -0.31 0.18 -0.3 0.19 -0.29 0.18 -0.29 0.18 -0.29 0.17 -0.27 0.17 -0.27 0.16 -0.26 0.16 -0.25 0 0.01zm0 -0.01c1.11,-1.78 3.56,-2.38 5.46,-1.34 1.9,1.05 2.54,3.34 1.43,5.12l-6.89 -3.78zm3.35 -5.31l6.64 4.16 0 -0.01 -0.06 0.09 -0.06 0.09 -0.08 0.11 -0.07 0.1 -0.06 0.09 -0.06 0.09 -0.07 0.12 -0.08 0.11 -0.06 0.1 -0.08 0.12 -0.07 0.12 -0.09 0.13 -0.07 0.12 -0.08 0.13 -0.09 0.14 -0.09 0.14 -0.08 0.14 -0.11 0.17 -0.1 0.16 -0.09 0.15 -0.11 0.18 -0.11 0.18 -0.11 0.18 -0.12 0.19 -0.12 0.21 -0.12 0.19 -0.13 0.21 -0.14 0.22 -0.14 0.23 -0.15 0.24 -0.14 0.24 -0.16 0.25 -6.89 -3.77 0.15 -0.25 0.14 -0.23 0.14 -0.23 0.14 -0.22 0.13 -0.21 0.13 -0.21 0.13 -0.2 0.11 -0.19 0.11 -0.19 0.12 -0.19 0.11 -0.17 0.1 -0.17 0.11 -0.18 0.1 -0.16 0.09 -0.15 0.1 -0.16 0.09 -0.15 0.09 -0.15 0.1 -0.15 0.09 -0.15 0.09 -0.14 0.08 -0.13 0.09 -0.14 0.1 -0.14 0.08 -0.14 0.08 -0.12 0.1 -0.14 0.1 -0.15 0.08 -0.12 0.08 -0.12 0.1 -0.13 0.09 -0.14 0 0zm0 0c1.22,-1.71 3.71,-2.18 5.54,-1.03 1.83,1.14 2.32,3.47 1.1,5.18l-6.64 -4.15zm3.49 -3.68l4.63 6.1 -0.02 0.01 0.02 -0.01 0.02 -0.02 0.01 0 -0.01 0 -0.02 0.02 -0.02 0.01 -0.03 0.03 -0.04 0.04 -0.02 0.01 -0.04 0.05 -0.05 0.05 -0.05 0.05 -0.05 0.04 -0.04 0.05 -0.06 0.06 -0.06 0.07 -0.06 0.06 -0.06 0.07 -0.06 0.08 -0.06 0.06 -0.06 0.08 -0.08 0.09 -0.05 0.06 -0.07 0.08 -0.07 0.1 -0.06 0.07 -0.06 0.08 -0.08 0.1 -0.05 0.07 -0.06 0.09 -0.08 0.11 -0.06 0.08 -6.64 -4.16 0.1 -0.14 0.08 -0.11 0.1 -0.13 0.11 -0.14 0.09 -0.12 0.09 -0.12 0.11 -0.14 0.09 -0.12 0.1 -0.12 0.11 -0.13 0.09 -0.11 0.1 -0.12 0.11 -0.13 0.1 -0.11 0.1 -0.12 0.1 -0.11 0.1 -0.11 0.1 -0.11 0.12 -0.12 0.11 -0.12 0.11 -0.1 0.1 -0.1 0.11 -0.1 0.13 -0.13 0.11 -0.1 0.11 -0.09 0.13 -0.12 0.12 -0.09 0.13 -0.11 0.14 -0.11 0.16 -0.1 0.14 -0.1 -0.01 0zm0.01 0c1.8,-1.19 4.3,-0.79 5.57,0.9 1.26,1.69 0.83,4.02 -0.97,5.21l-4.6 -6.11zm6.76 0.03l-3.01 6.92 -0.01 0 -0.18 -0.07 -0.16 -0.06 -0.14 -0.06 -0.13 -0.05 -0.13 -0.04 -0.13 -0.05 -0.09 -0.03 -0.09 -0.04 -0.07 -0.02 -0.05 -0.02 -0.05 -0.01 -0.04 -0.02 -0.02 0 0.02 0 0.03 0.01 0.07 0.02 0.1 0.01 0.07 0.01 0.09 0.01 0.15 0 0.18 0 0.19 -0.02 0.19 -0.02 0.14 -0.03 0.2 -0.05 0.16 -0.05 0.15 -0.06 0.14 -0.05 0.1 -0.06 0.1 -0.05 0.03 -0.02 0.05 -0.03 -4.63 -6.1 0.18 -0.11 0.14 -0.08 0.23 -0.13 0.22 -0.11 0.25 -0.11 0.28 -0.1 0.28 -0.09 0.32 -0.08 0.26 -0.05 0.32 -0.05 0.31 -0.02 0.31 -0.01 0.29 0.02 0.24 0.01 0.22 0.03 0.24 0.04 0.23 0.05 0.21 0.04 0.2 0.06 0.16 0.04 0.15 0.05 0.15 0.05 0.17 0.05 0.16 0.06 0.15 0.05 0.16 0.06 0.14 0.05 0.15 0.06 0.16 0.06 0.17 0.06 0.16 0.07 0.17 0.06 -0.01 0zm0.01 0c2.04,0.78 3.01,2.97 2.18,4.88 -0.84,1.91 -3.17,2.82 -5.21,2.04l3.03 -6.92zm8.54 3.18l-2.9 6.97 0 0 -0.31 -0.12 -0.32 -0.11 -0.33 -0.13 -0.32 -0.11 -0.31 -0.12 -0.31 -0.11 -0.31 -0.11 -0.32 -0.12 -0.31 -0.12 -0.31 -0.11 -0.3 -0.11 -0.29 -0.11 -0.3 -0.11 -0.3 -0.11 -0.29 -0.11 -0.28 -0.1 -0.27 -0.11 -0.28 -0.1 -0.26 -0.1 -0.27 -0.1 -0.27 -0.1 -0.24 -0.09 -0.25 -0.09 -0.24 -0.09 -0.24 -0.09 -0.23 -0.09 -0.21 -0.08 -0.21 -0.08 -0.21 -0.08 -0.2 -0.08 -0.19 -0.07 -0.18 -0.07 3.01 -6.92 0.18 0.06 0.19 0.08 0.18 0.07 0.2 0.07 0.22 0.08 0.22 0.09 0.22 0.08 0.23 0.09 0.23 0.09 0.25 0.09 0.26 0.09 0.24 0.1 0.26 0.09 0.27 0.11 0.27 0.1 0.28 0.1 0.28 0.11 0.29 0.1 0.28 0.11 0.29 0.11 0.3 0.11 0.3 0.11 0.31 0.11 0.3 0.11 0.3 0.11 0.31 0.12 0.31 0.11 0.32 0.12 0.32 0.12 0.3 0.11 0.32 0.11 0.32 0.12 0 0zm0 0c2.05,0.75 3.07,2.92 2.27,4.84 -0.8,1.92 -3.11,2.88 -5.17,2.13l2.9 -6.97zm12.9 7.21l-7.99 -0.04 2.58 3.52 -0.32 -0.12 -0.33 -0.11 -0.33 -0.12 -0.32 -0.11 -0.33 -0.12 -0.32 -0.12 -0.33 -0.11 -0.33 -0.12 -0.32 -0.11 -0.32 -0.12 -0.34 -0.12 -0.32 -0.11 -0.32 -0.12 -0.33 -0.11 -0.33 -0.12 -0.31 -0.11 -0.34 -0.12 -0.32 -0.12 -0.32 -0.11 -0.33 -0.12 -0.32 -0.12 -0.33 -0.11 -0.32 -0.12 -0.32 -0.12 -0.34 -0.12 -0.31 -0.11 -0.32 -0.12 -0.33 -0.12 -0.31 -0.11 -0.33 -0.11 -0.33 -0.13 -0.32 -0.11 2.9 -6.97 0.32 0.12 0.31 0.11 0.32 0.11 0.33 0.12 0.31 0.12 0.32 0.11 0.33 0.12 0.31 0.12 0.32 0.11 0.32 0.12 0.33 0.11 0.32 0.12 0.31 0.11 0.33 0.12 0.33 0.11 0.31 0.12 0.33 0.11 0.33 0.12 0.31 0.11 0.34 0.12 0.32 0.12 0.31 0.11 0.33 0.11 0.33 0.12 0.33 0.12 0.32 0.11 0.32 0.12 0.32 0.11 0.34 0.12 0.32 0.11 0.32 0.12 0.33 0.11 2.58 3.52zm-2.58 -3.52c2.06,0.73 3.1,2.89 2.32,4.82 -0.78,1.94 -3.09,2.91 -5.15,2.18l2.83 -7z"/>
     <path id="_1" class="fil1" d="M62.27 41.84c-0.02,2.81 -0.04,5.61 -0.54,9.09 -0.49,3.48 -1.46,7.63 -2.23,10.84 -0.76,3.21 -1.33,5.49 -2,7.48 -0.67,1.98 -1.45,3.68 -2.65,5.35 -1.19,1.68 -2.8,3.33 -4.49,4.45 -1.69,1.12 -3.46,1.71 -5.38,2.41 -1.92,0.7 -4,1.51 -5.64,2.02 -1.64,0.51 -2.84,0.71 -4.22,2.72 -1.38,2.01 -2.93,5.82 -4.77,10.41 -1.84,4.6 -3.98,9.97 -4.88,12.86 -0.91,2.89 -0.58,3.3 0.69,3.96 1.28,0.67 3.51,1.59 5.21,2.47 1.71,0.88 2.89,1.72 3.46,2.36 0.57,0.65 0.52,1.09 -0.12,1.22 -0.63,0.13 -1.86,-0.05 -5.73,-1.28 -3.87,-1.24 -10.39,-3.52 -14.61,-5 -4.21,-1.48 -6.13,-2.16 -7.03,-2.67 -0.89,-0.51 -0.75,-0.84 -0.6,-1.22 0.16,-0.39 0.34,-0.83 1.04,-0.9 0.7,-0.06 1.92,0.25 3.51,0.63 1.6,0.38 3.57,0.83 4.85,1.14 1.29,0.31 1.89,0.48 2.4,0.6 0.51,0.12 0.94,0.19 2.51,-3.14 1.57,-3.32 4.3,-10.03 6.19,-14.68 1.88,-4.64 2.93,-7.2 3.07,-9.09 0.15,-1.9 -0.6,-3.11 -1.63,-4.78 -1.02,-1.68 -2.31,-3.81 -3.25,-5.95 -0.95,-2.13 -1.55,-4.28 -1.78,-6.21 -0.24,-1.93 -0.11,-3.65 0.64,-5.92 0.74,-2.27 2.1,-5.09 4.09,-8.52 1.99,-3.44 4.6,-7.5 6.26,-10.17 1.67,-2.67 2.39,-3.94 3.23,-5.12 0.84,-1.18 1.8,-2.26 2.48,-2.71 0.68,-0.45 1.08,-0.28 2.95,0.44 1.87,0.71 5.21,1.96 8.61,3.2 3.41,1.25 6.88,2.48 10.36,3.71z"/>
    </g>
    <path class="fil2" d="M35.46 51.8c-2.03,3.27 -4.07,6.53 -5.08,9.24 -1.02,2.7 -1.01,4.85 -0.49,7.04 0.52,2.18 1.55,4.4 2.92,6.36 1.36,1.97 3.05,3.69 5.3,4.26 2.26,0.58 5.08,0.02 7.93,-1.46 2.85,-1.48 5.72,-3.87 7.67,-6.91 1.94,-3.03 2.96,-6.7 3.86,-10.67 0.89,-3.97 1.67,-8.25 2.45,-12.52 -0.88,1.97 -1.76,3.93 -2.63,5.79 -0.87,1.86 -1.74,3.6 -3.12,5.35 -1.38,1.74 -3.28,3.49 -5.46,4.35 -2.17,0.86 -4.63,0.83 -6.71,-0.02 -2.09,-0.86 -3.79,-2.52 -4.83,-4.46 -1.04,-1.94 -1.42,-4.14 -1.81,-6.35z"/>
    <path class="fil3 str0" d="M49.97 24.17c-0.29,-0.23 -0.51,-0.37 -0.86,-0.76 -0.34,-0.39 -0.82,-1.04 -0.98,-1.48 -0.16,-0.44 -0.02,-0.68 0.22,-0.97 0.23,-0.29 0.56,-0.63 1.09,-1.24 0.53,-0.62 1.25,-1.5 1.81,-1.98 0.57,-0.47 0.97,-0.54 1.4,-0.83 0.44,-0.29 0.91,-0.8 1.97,-1.81 1.05,-1 2.68,-2.5 3.72,-3.57 1.04,-1.07 1.47,-1.72 1.62,-2.24 0.14,-0.53 0,-0.94 -0.18,-1.64 -0.19,-0.69 -0.4,-1.68 -0.4,-2.38 0,-0.7 0.21,-1.11 0.49,-1.56 0.27,-0.46 0.59,-0.98 1.49,-1.96 0.89,-0.99 2.34,-2.45 4.28,-4.41 1.95,-1.96 4.38,-4.41 8.1,-7.91 3.73,-3.51 8.75,-8.07 11.97,-10.93 3.22,-2.85 4.66,-4.01 5.81,-4.4 1.16,-0.38 2.04,0 2.95,0.49 0.9,0.49 1.84,1.08 2.7,1.77 0.87,0.68 1.66,1.45 2.43,2.32 0.77,0.88 1.51,1.86 2.05,2.57 0.53,0.7 0.86,1.14 1.11,1.57 0.25,0.42 0.41,0.83 0.51,1.13 0.1,0.29 0.12,0.47 -0.22,0.99 -0.34,0.51 -1.06,1.36 -3.19,3.47 -2.13,2.11 -5.67,5.48 -8.62,8.22 -2.96,2.74 -5.32,4.85 -7.75,7.05 -2.43,2.2 -4.93,4.49 -6.8,6.17 -1.87,1.67 -3.1,2.72 -4,3.41 -0.89,0.68 -1.44,0.98 -1.92,1.14 -0.48,0.15 -0.89,0.15 -1.54,0.13 -0.65,-0.03 -1.52,-0.08 -2.35,-0.18 -0.82,-0.11 -1.59,-0.26 -2.33,-0.04 -0.74,0.22 -1.46,0.81 -2.63,1.88 -1.16,1.07 -2.78,2.61 -3.69,3.46 -0.91,0.85 -1.1,1 -1.2,1.25 -0.09,0.24 -0.09,0.58 -0.37,0.91 -0.27,0.33 -0.82,0.67 -1.43,1.11 -0.6,0.43 -1.26,0.98 -1.66,1.34 -0.4,0.36 -0.53,0.53 -0.74,0.75 -0.21,0.22 -0.48,0.48 -0.8,0.49 -0.31,0.02 -0.67,-0.22 -0.85,-0.33 -0.18,-0.12 -0.18,-0.12 -0.36,-0.28 -0.19,-0.16 -0.56,-0.49 -0.85,-0.72z"/>
    <path class="fil4" d="M99.7 -12.43c-3.61,3.36 -24.25,23.14 -27.45,24.74 -4.76,2.38 -6.79,-1.25 -12.68,4.43 -2.35,2.26 -9.27,8.69 -10.05,11.28 -1.99,6.64 8.16,16.73 4.76,26 -1.26,3.43 -6.58,6.68 -10.47,5.94 -3.47,-0.66 -5.74,-4.99 -4.71,-7.73 0.28,3.23 3.16,4.67 4.71,5.08 1.52,0.4 3.26,0.48 5.15,-0.73 6.62,-4.22 3.36,-12.16 1.1,-17.75 -1.93,-4.74 -3.49,-9.17 0.15,-13.66 1.73,-2.12 8.71,-10.29 10.9,-11.71 1.27,-0.82 2.31,-1.23 3.31,-1.43 1.55,-0.33 3.24,-0.77 5.3,-1.15 2.66,-0.49 5.69,-3.61 7.58,-5.31 2.09,-1.89 12.56,-10.47 22.4,-18z"/>
    <path class="fil5 str1" d="M177.16 50.42c0.4,-9.67 -7.34,-16.54 -18.56,-16.54 -15.8,0 -25.2,12.94 -25.2,30.04 0,0.95 0.79,1.67 1.66,1.67 0.95,0 1.66,-0.72 1.66,-1.67 0,-15.02 7.66,-26.37 21.88,-26.61 8.85,-0.16 15.48,4.64 15.25,13.11 -0.4,9.26 -9.48,15.25 -20.22,15.65 -1.27,0 -1.9,0.8 -1.9,1.68 0,0.8 0.63,1.68 1.9,1.68 8.05,0.08 9.87,6.31 9.87,13.1 0,5.59 -1.34,13.02 -1.34,16.7 0,6.31 2.84,10.46 8.68,10.46 1.03,0 1.82,-0.8 1.82,-1.84 0,-1.03 -0.79,-1.59 -1.82,-1.59 -3.55,0 -5.21,-2.08 -5.37,-7.03 0,-2 1.35,-11.67 1.35,-16.78 0,-5.91 -1.19,-11.26 -5.29,-14.22 8.92,-2.48 15.32,-9.19 15.63,-17.81l0 0zm-18.08 -6.96c0.79,-0.71 1.65,-1.19 2.45,-1.35 0.7,-0.16 1.42,-0.64 1.42,-1.92 0,-0.88 -0.87,-1.44 -1.82,-1.44 -1.11,0 -2.84,0.8 -4.27,2.08 -4.26,3.99 -6.39,11.82 -8.92,20.45 -3.72,12.22 -8.22,28.44 -19.27,28.44 -4.35,0 -8.14,-2.72 -8.14,-7.51 0,-4.79 3.79,-9.75 8.14,-9.75 0.47,0 0.94,0.08 1.34,0.16 1.18,0.32 2.05,-0.55 2.05,-1.67 0,-1.44 -1.34,-1.92 -3.47,-1.92 -6.01,0 -11.38,6.23 -11.38,13.18 0,6.55 5.06,10.87 11.53,10.87 13.12,0 18.01,-16.46 22.36,-30.84 2.21,-7.27 4.58,-15.98 7.98,-18.78l0 0zm43.99 30.44c-0.87,-0.32 -1.81,0.08 -2.21,0.88 -4.42,10.31 -9.48,14.94 -15.95,14.78 -4.74,-0.16 -7.27,-2.96 -7.11,-7.51 0.08,-1.68 0.31,-3.19 0.87,-5.27 8.76,-2.16 20.53,-7.27 20.53,-15.74 0,-3.83 -2.76,-5.91 -6.71,-5.91 -9.32,0 -17.54,16.61 -18.01,26.84 -0.16,6.55 3.79,10.95 10.35,10.95 7.97,0 13.98,-5.28 19.11,-16.78 0.08,-0.24 0.16,-0.4 0.16,-0.64 0,-0.64 -0.4,-1.28 -1.03,-1.6zm-23.14 -0.96c2.53,-6.15 7.11,-14.46 12.56,-14.46 1.74,0 3.39,0.4 3.39,2.56 0,5.91 -9.39,9.83 -15.95,11.9zm45.65 5.84c-0.08,-5.44 -2.21,-8.23 -6.31,-15.9 2.44,-2.8 4.42,-6.31 4.42,-9.51 -0.16,-2.32 -1.5,-4.15 -3.79,-4.15 -3.24,0 -5.77,3.51 -5.77,7.67 0,1.83 0.47,3.59 1.19,5.27 -0.95,0.96 -1.74,1.84 -2.69,2.95 -0.24,0.32 -0.4,0.72 -0.4,1.04 0,0.48 0.16,1.04 0.56,1.36 0.31,0.32 0.79,0.4 1.18,0.4 0.48,0 0.95,-0.24 1.27,-0.64 0.47,-0.64 1.02,-1.28 1.58,-1.84 4.18,7.43 5.37,9.75 5.45,13.27 -0.16,6.63 -4.74,10.86 -11.14,10.86 -4.58,0 -8.61,-3.43 -8.61,-8.31 0.32,-4.87 3.16,-8.55 7.5,-8.55 2.06,0 4.03,2 4.19,4.72 0,0.96 0.71,1.67 1.66,1.67 0.95,0 1.66,-0.71 1.66,-1.67 -0.16,-4.4 -3.48,-8.07 -7.59,-8.07 -6.31,0 -10.26,4.71 -10.74,11.9 0,6.47 5.37,11.67 11.93,11.67 7.98,0 14.3,-5.52 14.45,-14.14zm-7.74 -19.42c-0.23,-0.88 -0.39,-1.68 -0.39,-2.55 0,-1.12 0.23,-2.56 1.18,-3.52 0.79,-0.8 1.66,-1.04 1.66,0.08 0,1.76 -1.18,4.23 -2.45,5.99l0 0zm32.15 14.54c-0.24,-0.08 -0.47,-0.16 -0.71,-0.16 -0.63,0 -1.26,0.4 -1.58,0.96 -3.71,8.23 -7.5,14.86 -13.19,14.86 -1.58,0 -2.53,-1.2 -2.53,-3.35 0,-2.32 1.03,-6 4.27,-15.26 2.6,-7.43 3.95,-11.11 4.42,-12.63l6.48 0c0.95,0 1.66,-0.72 1.66,-1.67 0,-0.88 -0.71,-1.68 -1.66,-1.68l-5.3 0c0.56,-1.52 3.96,-11.27 3.72,-10.79 0.39,-1.03 -0.4,-2.23 -1.58,-2.23 -0.71,0 -1.34,0.4 -1.58,1.12 -0.08,0.31 -3.95,11.58 -4.11,11.9l-6.08 0c-0.95,0 -1.66,0.8 -1.66,1.68 0,0.95 0.71,1.67 1.66,1.67l4.98 0 -4.03 11.43c-2.53,6.55 -4.51,13.5 -4.51,16.46 0,3.83 2.06,6.71 5.85,6.71 7.27,0 11.69,-6.79 16.27,-16.78 0.08,-0.24 0.16,-0.48 0.16,-0.72 0,-0.64 -0.4,-1.2 -0.95,-1.52zm60.98 0c-0.24,-0.08 -0.47,-0.16 -0.71,-0.16 -1.42,0 -1.42,1.36 -2.69,3.76 -1.97,3.67 -4.02,6.95 -7.97,6.95 -1.43,0 -2.93,-0.72 -3.8,-1.76 0.16,-0.16 0.24,-0.4 0.32,-0.56 3.08,-5.51 5.61,-12.62 5.69,-18.05 0,-5.04 -1.66,-8.95 -6.64,-8.95 -2.92,0 -5.45,1.44 -7.66,3.75 1.34,-3.67 1.97,-5.67 3.32,-9.66l1.74 -5.2c0.39,-1.03 -0.4,-2.23 -1.58,-2.23 -0.72,0 -1.35,0.4 -1.58,1.12 -0.64,1.75 -1.27,3.83 -1.74,5.35 -0.24,0.8 -8.93,25.96 -9.4,27.4 -0.95,2.64 -2.45,6.63 -2.45,10.22 0,4.64 1.97,7.04 6.24,7.04 4.9,0 8.69,-2.88 11.93,-7.35 1.5,1.51 3.47,2.23 5.61,2.23 5.05,0 8.29,-3.59 10.9,-8.79 0.47,-0.87 1.5,-2.95 1.5,-3.59 0,-0.64 -0.4,-1.28 -1.03,-1.52l0 0zm-17.46 -0.16c-0.71,0 -1.34,0.48 -1.58,1.28 -0.47,1.44 -0.55,2.64 -0.55,3.84 0,1.43 0.24,2.63 0.63,3.67 -2.76,4.23 -6.16,7.03 -9.87,7.03 -2.13,0 -3,-1.28 -3,-3.83 0,-1.6 0.55,-3.76 1.74,-7.11 3.15,-8.07 8.05,-20.14 14.45,-20.14 2.69,0 3.08,2.24 3.08,5.44 0,3.91 -1.5,9.18 -3.55,13.34 0.08,-0.4 0.16,-0.88 0.31,-1.36 0.24,-1.12 -0.55,-2.16 -1.66,-2.16zm49.29 0.16c-0.23,-0.08 -0.47,-0.16 -0.71,-0.16 -0.63,0 -1.18,0.4 -1.5,1.04l-0.08 0.24c-2.6,5.91 -6.4,14.54 -11.29,14.54 -1.66,0 -2.37,-0.96 -2.37,-3.35 0,-3.52 2.6,-10.47 5.45,-18.54l3.95 -10.7c0.39,-0.96 -0.24,-2.24 -1.5,-2.24 -0.72,0 -1.35,0.4 -1.58,1.04 -0.4,1.04 -0.87,2.23 -1.35,3.59 -1.42,-2.87 -3.87,-4.23 -7.18,-4.23 -9.48,0 -17.46,18.69 -17.46,29.16 0,4.79 2.05,8.63 6.48,8.63 3.39,0 6.71,-2.24 9.87,-6.71 0,3.91 1.9,6.71 5.69,6.71 7.11,0 11.37,-9.83 14.37,-16.54l0.08 -0.24c0.08,-0.24 0.16,-0.48 0.16,-0.72 0,-0.64 -0.39,-1.2 -1.03,-1.52l0 0zm-29.22 15.66c-2.37,0 -3.08,-2.32 -3.08,-5.83 0.15,-7.91 6.87,-25.09 14.14,-25.25 2.84,0 4.89,2.16 5.05,5.84l-1.9 5.11c-3.15,8.15 -7.81,20.13 -14.21,20.13zm58.29 -15.66c-0.24,-0.08 -0.47,-0.16 -0.71,-0.16 -0.63,0 -1.19,0.4 -1.5,1.04 -4.5,10.31 -7.51,14.78 -11.37,14.78 -1.74,0 -2.37,-1.36 -2.37,-3.35 0.07,-1.36 0.23,-2.72 0.71,-4.4 0.47,-2 4.26,-13.42 5.29,-16.06 0.31,-0.96 -0.08,-1.99 -0.95,-2.31 -0.87,-0.32 -1.9,-0.64 -3,-0.96 -2.29,-0.8 -4.98,-1.68 -7.19,-2.8 0.95,-3.11 1.27,-3.83 1.27,-5.11 0,-3.2 -1.74,-5.27 -4.59,-5.27 -2.53,0 -4.82,1.91 -4.82,5.19 0,2.96 1.66,5.03 4.03,6.71l-0.95 2.4 -6.31 13.9c-0.08,0.24 -0.16,0.48 -0.16,0.72 0,0.64 0.39,1.19 0.95,1.51 0.23,0.08 0.47,0.16 0.79,0.16 0.55,0 1.1,-0.32 1.42,-0.95 6.32,-13.99 6.87,-15.1 7.19,-16.06 1.73,0.88 2.6,1.2 8.61,3.19 -0.71,1.76 -4.19,12.39 -4.82,14.94 -0.56,2 -0.79,3.6 -0.79,5.2 0,3.91 1.89,6.71 5.61,6.71l0.08 0c5.37,0 9.32,-4.88 14.45,-16.78 0.08,-0.24 0.16,-0.48 0.16,-0.72 0,-0.64 -0.4,-1.2 -1.03,-1.52zm-23.14 -19.41c0,0.8 -0.48,2.24 -0.87,3.36 -1.19,-0.96 -1.9,-2.4 -1.9,-3.68 0,-0.88 0.48,-1.52 1.5,-1.52 0.63,0 1.27,0.48 1.27,1.84l0 0zm-67.06 21.57c0.47,-1.12 -0.4,-2.32 -1.58,-2.32 -0.64,0 -1.27,0.4 -1.51,1.04 -2.76,6.63 -5.52,9.67 -8.84,9.67 -1.82,0 -3.16,-0.56 -4.03,-1.68 3.63,-6.23 6.16,-14.06 6.16,-19.09 0,-4.8 -2.69,-8.39 -7.9,-8.55 -3.95,0 -7.82,2.8 -11.14,8.39 -2.6,4.31 -6.71,12.06 -6.71,21.33 0,4.63 1.74,8.07 6.87,8.07 3.79,0 7.82,-3.28 10.74,-7.27 1.74,1.43 3.8,2.15 6.01,2.15 4.74,0 8.45,-3.67 11.93,-11.74l0 0zm-18.33 -2.32c-0.79,0 -1.5,0.48 -1.66,1.28 -0.55,2 -0.71,5.51 0.16,7.59 -2.61,3.75 -5.93,6.95 -8.85,6.95 -2.53,0 -3.47,-2 -3.47,-4.87 0,-8.23 4.18,-15.98 6.24,-19.42 2.29,-3.99 5.13,-6.79 8.13,-6.79 2.69,0 4.66,1.76 4.66,5.12 0,3.67 -1.5,9.18 -3.95,14.14 0.08,-0.56 0.08,-1.2 0.32,-1.84 0.32,-1.12 -0.47,-2.16 -1.58,-2.16z"/>
   </g>
  </g>
  <polygon class="fil6" points="0,0 375.25,0 375.25,123.88 0,123.88 "/>
 </g>
</svg>
